<svg xmlns="http://www.w3.org/2000/svg" viewBox="0 0 190.55 46.86"><defs><style>.cls-1,.cls-2,.cls-4{fill:#fff;}.cls-2{font-size:10.67px;letter-spacing:0.2em;}.cls-2,.cls-4{font-family:PTSerif-Regular, PT Serif;}.cls-3{letter-spacing:0.16em;}.cls-4{font-size:7.34px;letter-spacing:0.2em;}</style></defs><title>Asset 1</title><g id="Layer_2" data-name="Layer 2"><g id="Layer_1-2" data-name="Layer 1"><path class="cls-1" d="M48.52,14.75c-.92-1.48-3.2-1.76-3.2-1.76h0a10.51,10.51,0,0,0-1.87-1.3c-6-3.34-9.87,1.41-16.46-.42-.35-.91-2.26-1.84-3.48-2.14S18.91,5.79,18,5a33.78,33.78,0,0,0-4.17-3.21c-.5-.29-1.31-.73-4-.55-.23,0-.7.18-.93.2C8,.71,7.66-.14,7.66.28c0,0,0,.23,0,.53C7.2.24,7.15-.18,7,.08a5.16,5.16,0,0,0,.4,2A8.33,8.33,0,0,0,5.59,3.8l.5,0A36.57,36.57,0,0,0,3.53,6.93c-1,1.46-2.87,3-.89,5.12.56.59,1.66,0,3.27-1.39A13.09,13.09,0,0,1,8.8,9.58c1.21-.21.87-.83,1.29-.67s1.54-.57,3.87,5.62a8,8,0,0,1,1.21,3.89c-.09,1.83-.31,3.06,2.26,5.34a11.39,11.39,0,0,0,.82,4.59c.93,2-1,2.45.71,4.93,0,0,.54.85-.07,5a8.52,8.52,0,0,1-1,1.63c-.32.28-.44.79-.76,1.14s.32.37,1.29.44c.8.06,1.9-.32,2-.8h0c.19.64,2.41.23,2.68-.48s-.46-1.35.3-2.37-1.16-4-.88-5.19.22-.88-.07-4.62a9,9,0,0,1,.28-3.7c2.08.32,8.79,1.06,12.14-1l.37-.31c1.27-.34,4.14-.31,4.91,1.11a9.72,9.72,0,0,1,1.52,3.27c.35,1.7,1.36,1.21,1.93,3.39s-.14,7.76-.79,8.4-.94,1.3-1.48,1.89c-.71.54-1,1-.63,1.06s4,.64,3.67-.5A1.92,1.92,0,0,1,45,39.53c.42-.44,1-5.55,1.48-8.85.24-1.59-2.34-3.48-1.2-6.22,1.22-2.94,3.38-6.73,1.31-10h0c2.93,2.65,1.88,7.84,1.28,10.1s-.29,5.15.57,6.28a4.12,4.12,0,0,1,.8,2.41c.78-1.91,1.24-7,1.57-10.36S49.43,16.22,48.52,14.75Zm-27,23.34a12,12,0,0,0-1.12,2.37l0-.07c-.42-.63.09-1.32.64-1.7s-.12-1.89-.1-4.5a9.59,9.59,0,0,1,.1-1.48C21.55,34.24,22,37.11,21.56,38.09Z"/><path class="cls-1" d="M41.39,23.18c.09-.23.2-.48.31-.72a3.53,3.53,0,0,0-3.6-.38,6.14,6.14,0,0,0-1.7.87,9.51,9.51,0,0,1,1.43,3.15c.34,1.7,1.37,1.21,1.93,3.39s-.14,7.76-.79,8.4-.94,1.3-1.48,1.89c-.71.54-1,1-.63,1.05s4,.63,3.67-.5a1.91,1.91,0,0,1,.58-2.09c.42-.44,1-5.55,1.48-8.85C42.83,27.8,40.25,25.92,41.39,23.18Z"/><path class="cls-1" d="M0,46.86a56.53,56.53,0,0,1,21.56-6.18c7.5-.46,11.64-1.11,24.9,1.38,6.81,1.28,10,3.44,15.45,4.8"/><text class="cls-2" transform="translate(69.24 26.07)">HO<tspan class="cls-3" x="19.94" y="0">O</tspan><tspan x="29.53" y="0">VED ANIMAL</tspan></text><text class="cls-4" transform="translate(69.24 36.05)">HUMANE SOCIETY</text></g></g></svg>